<svg width="53" height="53" viewBox="0 0 53 53" fill="none" xmlns="http://www.w3.org/2000/svg">
<circle cx="26.5" cy="26.5" r="26" stroke="black"/>
<path fill-rule="evenodd" clip-rule="evenodd" d="M26.868 48.5833C39.2676 48.5833 49.3194 38.5315 49.3194 26.1319C49.3194 13.7324 39.2676 3.68054 26.868 3.68054C14.4685 3.68054 4.41666 13.7324 4.41666 26.1319C4.41666 26.6435 4.43377 27.1511 4.46744 27.6541C7.11038 24.8563 10.7781 23.123 14.8323 23.123C18.3277 23.123 21.5359 24.4115 24.0476 26.5597L31.4732 19.1057C31.8638 18.2011 32.7638 17.568 33.8118 17.568C35.2179 17.568 36.3578 18.7079 36.3578 20.114C36.3578 21.5202 35.2179 22.6601 33.8118 22.6601C33.2581 22.6601 32.7457 22.4833 32.328 22.1832L25.9819 28.5536C28.1234 31.2125 29.4141 34.6479 29.4141 38.3992C29.4141 42.2979 28.02 45.8555 25.7255 48.5548C26.1039 48.5737 26.4849 48.5833 26.868 48.5833ZM45.1532 20.577C45.1532 22.4944 43.5988 24.0488 41.6814 24.0488C39.7639 24.0488 38.2095 22.4944 38.2095 20.577C38.2095 18.6595 39.7639 17.1051 41.6814 17.1051C43.5988 17.1051 45.1532 18.6595 45.1532 20.577Z" fill="#292929"/>
<ellipse cx="16.5183" cy="31.5212" rx="1.6202" ry="2.08312" transform="rotate(45 16.5183 31.5212)" fill="#292929"/>
<ellipse cx="21.4282" cy="36.4311" rx="1.6202" ry="2.08312" transform="rotate(45 21.4282 36.4311)" fill="#292929"/>
<rect x="15.5363" y="25.6817" width="16.5908" height="6.86956" rx="2.5" transform="rotate(45 15.5363 25.6817)" stroke="black"/>
</svg>
