<svg width="53" height="53" viewBox="0 0 53 53" fill="none" xmlns="http://www.w3.org/2000/svg">
<path fill-rule="evenodd" clip-rule="evenodd" d="M26.5 52C40.5833 52 52 40.5833 52 26.5C52 12.4167 40.5833 1 26.5 1C12.4167 1 1 12.4167 1 26.5C1 40.5833 12.4167 52 26.5 52ZM26.5 53C41.1355 53 53 41.1355 53 26.5C53 11.8645 41.1355 0 26.5 0C11.8645 0 0 11.8645 0 26.5C0 41.1355 11.8645 53 26.5 53Z" fill="white"/>
<path fill-rule="evenodd" clip-rule="evenodd" d="M26.868 48.5833C39.2676 48.5833 49.3194 38.5315 49.3194 26.1319C49.3194 13.7324 39.2676 3.68054 26.868 3.68054C14.4685 3.68054 4.41666 13.7324 4.41666 26.1319C4.41666 26.6435 4.43377 27.1511 4.46744 27.6541C7.11038 24.8563 10.7781 23.123 14.8323 23.123C18.3277 23.123 21.5359 24.4115 24.0476 26.5597L31.4732 19.1057C31.8638 18.2011 32.7638 17.568 33.8118 17.568C35.2179 17.568 36.3578 18.7079 36.3578 20.114C36.3578 21.5202 35.2179 22.6601 33.8118 22.6601C33.2581 22.6601 32.7457 22.4833 32.328 22.1832L25.9819 28.5536C28.1234 31.2125 29.4141 34.6479 29.4141 38.3992C29.4141 42.2979 28.02 45.8555 25.7255 48.5548C26.1039 48.5737 26.4849 48.5833 26.868 48.5833ZM45.1532 20.577C45.1532 22.4944 43.5988 24.0488 41.6814 24.0488C39.7639 24.0488 38.2095 22.4944 38.2095 20.577C38.2095 18.6595 39.7639 17.1051 41.6814 17.1051C43.5988 17.1051 45.1532 18.6595 45.1532 20.577Z" fill="white"/>
<path d="M17.6639 32.6669C16.8504 33.4804 15.678 33.6269 15.0453 32.9942C14.4125 32.3615 14.5591 31.1891 15.3726 30.3756C16.1861 29.5621 17.3585 29.4155 17.9912 30.0482C18.624 30.681 18.4774 31.8534 17.6639 32.6669Z" fill="white"/>
<path d="M22.5739 37.5768C21.7604 38.3903 20.588 38.5369 19.9552 37.9041C19.3225 37.2714 19.4691 36.099 20.2826 35.2855C21.0961 34.472 22.2685 34.3254 22.9012 34.9582C23.5339 35.5909 23.3874 36.7633 22.5739 37.5768Z" fill="white"/>
<path fill-rule="evenodd" clip-rule="evenodd" d="M25.1464 35.999L16.9505 27.803C16.1694 27.022 14.9031 27.022 14.122 27.803L12.8001 29.125C12.019 29.9061 12.019 31.1724 12.8001 31.9534L20.996 40.1494C21.777 40.9304 23.0434 40.9304 23.8244 40.1494L25.1464 38.8274C25.9274 38.0463 25.9274 36.78 25.1464 35.999ZM17.6576 27.0959C16.486 25.9244 14.5865 25.9244 13.4149 27.0959L12.093 28.4179C10.9214 29.5895 10.9214 31.489 12.093 32.6605L20.2889 40.8565C21.4604 42.028 23.3599 42.028 24.5315 40.8565L25.8535 39.5345C27.0251 38.3629 27.0251 36.4634 25.8535 35.2918L17.6576 27.0959Z" fill="white"/>
</svg>
