<svg width="175" height="117" viewBox="0 0 175 117" fill="none" xmlns="http://www.w3.org/2000/svg">
<path d="M13.84 61.52C10.96 61.52 8.88 62.48 7.48 64.08V61.92H2.92V89H7.68V79.08C9.08 80.52 11.08 81.4 13.84 81.4C19.4 81.4 23.44 77.04 23.44 71.48C23.44 65.92 19.4 61.52 13.84 61.52ZM13.12 77.12C9.64 77.12 7.64 74.76 7.64 71.48C7.64 68.2 9.64 65.8 13.12 65.8C16.28 65.8 18.6 68.2 18.6 71.48C18.6 74.76 16.28 77.12 13.12 77.12ZM43.1525 64.08C41.7525 62.48 39.6725 61.52 36.7525 61.52C31.2325 61.52 27.1925 65.92 27.1925 71.48C27.1925 77 31.2325 81.4 36.7525 81.4C39.6725 81.4 41.7525 80.44 43.1525 78.84V81H47.6725V61.92H43.1525V64.08ZM37.4725 77.12C34.3125 77.12 32.0325 74.72 32.0325 71.48C32.0325 68.2 34.3125 65.8 37.4725 65.8C40.9525 65.8 42.9925 68.2 42.9925 71.48C42.9925 74.72 40.9525 77.12 37.4725 77.12ZM63.825 61.72C61.425 61.72 59.465 62.56 58.105 64.12V61.92H53.545V81H58.305V71.24C58.305 67.44 60.265 66.12 63.465 66.12C63.825 66.12 64.665 66.16 65.265 66.28V61.84C64.825 61.76 64.305 61.72 63.825 61.72ZM83.5822 64.08C82.1822 62.48 80.1022 61.52 77.1822 61.52C71.6622 61.52 67.6222 65.92 67.6222 71.48C67.6222 77 71.6622 81.4 77.1822 81.4C80.1022 81.4 82.1822 80.44 83.5822 78.84V81H88.1022V61.92H83.5822V64.08ZM77.9022 77.12C74.7422 77.12 72.4622 74.72 72.4622 71.48C72.4622 68.2 74.7422 65.8 77.9022 65.8C81.3822 65.8 83.4222 68.2 83.4222 71.48C83.4222 74.72 81.3822 77.12 77.9022 77.12ZM104.415 61.52C101.975 61.52 99.9347 62.36 98.5347 63.92V61.92H93.9747V81H98.7347V71.04C98.7347 67.36 100.695 65.8 103.175 65.8C105.695 65.8 107.215 67.36 107.215 70.36V81H111.935V69.68C111.935 64.6 109.015 61.52 104.415 61.52ZM126.808 81.4C132.688 81.4 137.168 77 137.168 71.48C137.168 65.92 132.688 61.52 126.808 61.52C120.968 61.52 116.528 65.92 116.528 71.48C116.528 77 120.968 81.4 126.808 81.4ZM126.808 77.08C123.648 77.08 121.368 74.68 121.368 71.48C121.368 68.24 123.648 65.84 126.808 65.84C130.008 65.84 132.328 68.24 132.328 71.48C132.328 74.68 130.008 77.08 126.808 77.08ZM144.383 59.08C146.023 59.08 147.343 57.8 147.343 56.2C147.343 54.6 146.023 53.32 144.383 53.32C142.743 53.32 141.463 54.6 141.463 56.2C141.463 57.8 142.743 59.08 144.383 59.08ZM146.743 81V61.92H141.983V81H146.743ZM167.288 63.88C165.888 62.4 163.888 61.52 161.128 61.52C155.568 61.52 151.528 65.92 151.528 71.48C151.528 77 155.568 81.4 161.128 81.4C164.048 81.4 166.128 80.4 167.528 78.8V81H172.048V53.4H167.288V63.88ZM161.848 77.12C158.688 77.12 156.368 74.72 156.368 71.48C156.368 68.2 158.688 65.8 161.848 65.8C165.328 65.8 167.328 68.2 167.328 71.48C167.328 74.72 165.328 77.12 161.848 77.12Z" fill="#020202"/>
<circle cx="87.5" cy="26.5" r="26" stroke="black"/>
<path fill-rule="evenodd" clip-rule="evenodd" d="M87.868 48.5833C100.268 48.5833 110.319 38.5315 110.319 26.1319C110.319 13.7324 100.268 3.68054 87.868 3.68054C75.4685 3.68054 65.4167 13.7324 65.4167 26.1319C65.4167 26.6435 65.4338 27.1511 65.4674 27.6541C68.1104 24.8563 71.7781 23.123 75.8323 23.123C79.3277 23.123 82.5359 24.4115 85.0476 26.5597L92.4732 19.1057C92.8638 18.2011 93.7638 17.568 94.8118 17.568C96.2179 17.568 97.3578 18.7079 97.3578 20.114C97.3578 21.5202 96.2179 22.6601 94.8118 22.6601C94.2581 22.6601 93.7457 22.4833 93.328 22.1832L86.9819 28.5536C89.1234 31.2125 90.4141 34.6479 90.4141 38.3992C90.4141 42.2979 89.02 45.8555 86.7255 48.5548C87.1039 48.5737 87.4849 48.5833 87.868 48.5833ZM106.153 20.577C106.153 22.4944 104.599 24.0488 102.681 24.0488C100.764 24.0488 99.2095 22.4944 99.2095 20.577C99.2095 18.6595 100.764 17.1051 102.681 17.1051C104.599 17.1051 106.153 18.6595 106.153 20.577Z" fill="#292929"/>
<ellipse cx="77.5182" cy="31.5212" rx="1.6202" ry="2.08312" transform="rotate(45 77.5182 31.5212)" fill="#292929"/>
<ellipse cx="82.4282" cy="36.4312" rx="1.6202" ry="2.08312" transform="rotate(45 82.4282 36.4312)" fill="#292929"/>
<rect x="76.5363" y="25.6817" width="16.5908" height="6.86956" rx="2.5" transform="rotate(45 76.5363 25.6817)" stroke="black"/>
<path d="M49.72 112V101.28H48.6V112H49.72ZM56.1765 112.16C58.4325 112.16 60.1125 110.416 60.1125 108.272C60.1125 106.112 58.4325 104.384 56.1765 104.384C53.9205 104.384 52.2565 106.112 52.2565 108.272C52.2565 110.416 53.9205 112.16 56.1765 112.16ZM56.1765 111.136C54.5925 111.136 53.3445 109.904 53.3445 108.272C53.3445 106.624 54.5925 105.408 56.1765 105.408C57.7605 105.408 59.0085 106.624 59.0085 108.272C59.0085 109.904 57.7605 111.136 56.1765 111.136ZM70.7269 101.28H62.0389V102.256H65.8309V112H66.9349V102.256H70.7269V101.28ZM79.2795 112.16C81.6635 112.16 83.1355 110.928 83.1355 109.12C83.1355 107.68 82.2395 106.704 80.4955 106.192L79.0395 105.76C77.6955 105.36 77.1195 104.8 77.1195 103.872C77.1195 102.736 78.1275 102.144 79.4075 102.144C80.4955 102.144 81.6475 102.448 82.5755 102.928V101.84C81.6155 101.36 80.4155 101.12 79.4075 101.12C77.2955 101.12 75.9995 102.272 75.9995 103.936C75.9995 105.344 76.8635 106.304 78.6235 106.832L80.0795 107.264C81.3915 107.648 81.9995 108.224 81.9995 109.168C81.9995 110.448 80.7995 111.104 79.2795 111.104C78.1915 111.104 76.9915 110.8 75.9515 110.24V111.376C77.0075 111.92 78.2875 112.16 79.2795 112.16ZM91.1181 107.984L86.5421 101.28H85.6781V112H86.7661V103.424L90.7021 109.216H91.5341L95.4541 103.456V112H96.5421V101.28H95.6781L91.1181 107.984ZM109.485 112L104.541 101.28H103.677L98.7326 112H99.9006L101.277 108.976H106.909L108.285 112H109.485ZM104.093 102.816L106.445 107.968H101.741L104.093 102.816ZM120.126 112L115.918 107.184C117.726 107.008 118.846 105.84 118.846 104.256C118.846 102.512 117.518 101.28 115.406 101.28H111.678V112H112.798V107.216H114.574L118.718 112H120.126ZM115.406 102.304C116.846 102.304 117.71 103.104 117.71 104.256C117.71 105.392 116.846 106.208 115.406 106.208H112.798V102.304H115.406ZM129.43 101.28H120.742V102.256H124.534V112H125.638V102.256H129.43V101.28Z" fill="#020202"/>
<line y1="105.5" x2="39" y2="105.5" stroke="black"/>
<line x1="136" y1="105.5" x2="175" y2="105.5" stroke="black"/>
</svg>
