<svg width="243" height="55" viewBox="0 0 243 55" fill="none" xmlns="http://www.w3.org/2000/svg">
<path d="M81.84 21.52C78.96 21.52 76.88 22.48 75.48 24.08V21.92H70.92V49H75.68V39.08C77.08 40.52 79.08 41.4 81.84 41.4C87.4 41.4 91.44 37.04 91.44 31.48C91.44 25.92 87.4 21.52 81.84 21.52ZM81.12 37.12C77.64 37.12 75.64 34.76 75.64 31.48C75.64 28.2 77.64 25.8 81.12 25.8C84.28 25.8 86.6 28.2 86.6 31.48C86.6 34.76 84.28 37.12 81.12 37.12ZM111.153 24.08C109.753 22.48 107.673 21.52 104.753 21.52C99.2325 21.52 95.1925 25.92 95.1925 31.48C95.1925 37 99.2325 41.4 104.753 41.4C107.673 41.4 109.753 40.44 111.153 38.84V41H115.673V21.92H111.153V24.08ZM105.473 37.12C102.313 37.12 100.033 34.72 100.033 31.48C100.033 28.2 102.313 25.8 105.473 25.8C108.953 25.8 110.993 28.2 110.993 31.48C110.993 34.72 108.953 37.12 105.473 37.12ZM131.825 21.72C129.425 21.72 127.465 22.56 126.105 24.12V21.92H121.545V41H126.305V31.24C126.305 27.44 128.265 26.12 131.465 26.12C131.825 26.12 132.665 26.16 133.265 26.28V21.84C132.825 21.76 132.305 21.72 131.825 21.72ZM151.582 24.08C150.182 22.48 148.102 21.52 145.182 21.52C139.662 21.52 135.622 25.92 135.622 31.48C135.622 37 139.662 41.4 145.182 41.4C148.102 41.4 150.182 40.44 151.582 38.84V41H156.102V21.92H151.582V24.08ZM145.902 37.12C142.742 37.12 140.462 34.72 140.462 31.48C140.462 28.2 142.742 25.8 145.902 25.8C149.382 25.8 151.422 28.2 151.422 31.48C151.422 34.72 149.382 37.12 145.902 37.12ZM172.415 21.52C169.975 21.52 167.935 22.36 166.535 23.92V21.92H161.975V41H166.735V31.04C166.735 27.36 168.695 25.8 171.175 25.8C173.695 25.8 175.215 27.36 175.215 30.36V41H179.935V29.68C179.935 24.6 177.015 21.52 172.415 21.52ZM194.808 41.4C200.688 41.4 205.168 37 205.168 31.48C205.168 25.92 200.688 21.52 194.808 21.52C188.968 21.52 184.528 25.92 184.528 31.48C184.528 37 188.968 41.4 194.808 41.4ZM194.808 37.08C191.648 37.08 189.368 34.68 189.368 31.48C189.368 28.24 191.648 25.84 194.808 25.84C198.008 25.84 200.328 28.24 200.328 31.48C200.328 34.68 198.008 37.08 194.808 37.08ZM212.383 19.08C214.023 19.08 215.343 17.8 215.343 16.2C215.343 14.6 214.023 13.32 212.383 13.32C210.743 13.32 209.463 14.6 209.463 16.2C209.463 17.8 210.743 19.08 212.383 19.08ZM214.743 41V21.92H209.983V41H214.743ZM235.288 23.88C233.888 22.4 231.888 21.52 229.128 21.52C223.568 21.52 219.528 25.92 219.528 31.48C219.528 37 223.568 41.4 229.128 41.4C232.048 41.4 234.128 40.4 235.528 38.8V41H240.048V13.4H235.288V23.88ZM229.848 37.12C226.688 37.12 224.368 34.72 224.368 31.48C224.368 28.2 226.688 25.8 229.848 25.8C233.328 25.8 235.328 28.2 235.328 31.48C235.328 34.72 233.328 37.12 229.848 37.12Z" fill="#020202"/>
<circle cx="26.5" cy="28.5" r="26" stroke="black"/>
<path fill-rule="evenodd" clip-rule="evenodd" d="M26.868 50.5833C39.2676 50.5833 49.3194 40.5315 49.3194 28.1319C49.3194 15.7324 39.2676 5.68054 26.868 5.68054C14.4685 5.68054 4.41666 15.7324 4.41666 28.1319C4.41666 28.6435 4.43377 29.1511 4.46744 29.6541C7.11038 26.8563 10.7781 25.123 14.8323 25.123C18.3277 25.123 21.5359 26.4115 24.0476 28.5597L31.4732 21.1057C31.8638 20.2011 32.7638 19.568 33.8118 19.568C35.2179 19.568 36.3578 20.7079 36.3578 22.114C36.3578 23.5202 35.2179 24.6601 33.8118 24.6601C33.2581 24.6601 32.7457 24.4833 32.328 24.1832L25.9819 30.5536C28.1234 33.2125 29.4141 36.6479 29.4141 40.3992C29.4141 44.2979 28.02 47.8555 25.7255 50.5548C26.1039 50.5737 26.4849 50.5833 26.868 50.5833ZM45.1532 22.577C45.1532 24.4944 43.5988 26.0488 41.6814 26.0488C39.7639 26.0488 38.2095 24.4944 38.2095 22.577C38.2095 20.6595 39.7639 19.1051 41.6814 19.1051C43.5988 19.1051 45.1532 20.6595 45.1532 22.577Z" fill="#292929"/>
<ellipse cx="16.5183" cy="33.5212" rx="1.6202" ry="2.08312" transform="rotate(45 16.5183 33.5212)" fill="#292929"/>
<ellipse cx="21.4282" cy="38.4311" rx="1.6202" ry="2.08312" transform="rotate(45 21.4282 38.4311)" fill="#292929"/>
<rect x="15.5363" y="27.6817" width="16.5908" height="6.86956" rx="2.5" transform="rotate(45 15.5363 27.6817)" stroke="black"/>
</svg>
