<svg width="171" height="36" viewBox="0 0 171 36" fill="none" xmlns="http://www.w3.org/2000/svg">
<path d="M11.84 8.52C8.96 8.52 6.88 9.48 5.48 11.08V8.92H0.92V36H5.68V26.08C7.08 27.52 9.08 28.4 11.84 28.4C17.4 28.4 21.44 24.04 21.44 18.48C21.44 12.92 17.4 8.52 11.84 8.52ZM11.12 24.12C7.64 24.12 5.64 21.76 5.64 18.48C5.64 15.2 7.64 12.8 11.12 12.8C14.28 12.8 16.6 15.2 16.6 18.48C16.6 21.76 14.28 24.12 11.12 24.12ZM41.1525 11.08C39.7525 9.48 37.6725 8.52 34.7525 8.52C29.2325 8.52 25.1925 12.92 25.1925 18.48C25.1925 24 29.2325 28.4 34.7525 28.4C37.6725 28.4 39.7525 27.44 41.1525 25.84V28H45.6725V8.92H41.1525V11.08ZM35.4725 24.12C32.3125 24.12 30.0325 21.72 30.0325 18.48C30.0325 15.2 32.3125 12.8 35.4725 12.8C38.9525 12.8 40.9925 15.2 40.9925 18.48C40.9925 21.72 38.9525 24.12 35.4725 24.12ZM61.825 8.72C59.425 8.72 57.465 9.56 56.105 11.12V8.92H51.545V28H56.305V18.24C56.305 14.44 58.265 13.12 61.465 13.12C61.825 13.12 62.665 13.16 63.265 13.28V8.84C62.825 8.76 62.305 8.72 61.825 8.72ZM81.5822 11.08C80.1822 9.48 78.1022 8.52 75.1822 8.52C69.6622 8.52 65.6222 12.92 65.6222 18.48C65.6222 24 69.6622 28.4 75.1822 28.4C78.1022 28.4 80.1822 27.44 81.5822 25.84V28H86.1022V8.92H81.5822V11.08ZM75.9022 24.12C72.7422 24.12 70.4622 21.72 70.4622 18.48C70.4622 15.2 72.7422 12.8 75.9022 12.8C79.3822 12.8 81.4222 15.2 81.4222 18.48C81.4222 21.72 79.3822 24.12 75.9022 24.12ZM102.415 8.52C99.9747 8.52 97.9347 9.36 96.5347 10.92V8.92H91.9747V28H96.7347V18.04C96.7347 14.36 98.6947 12.8 101.175 12.8C103.695 12.8 105.215 14.36 105.215 17.36V28H109.935V16.68C109.935 11.6 107.015 8.52 102.415 8.52ZM124.808 28.4C130.688 28.4 135.168 24 135.168 18.48C135.168 12.92 130.688 8.52 124.808 8.52C118.968 8.52 114.528 12.92 114.528 18.48C114.528 24 118.968 28.4 124.808 28.4ZM124.808 24.08C121.648 24.08 119.368 21.68 119.368 18.48C119.368 15.24 121.648 12.84 124.808 12.84C128.008 12.84 130.328 15.24 130.328 18.48C130.328 21.68 128.008 24.08 124.808 24.08ZM142.383 6.08C144.023 6.08 145.343 4.8 145.343 3.2C145.343 1.6 144.023 0.319999 142.383 0.319999C140.743 0.319999 139.463 1.6 139.463 3.2C139.463 4.8 140.743 6.08 142.383 6.08ZM144.743 28V8.92H139.983V28H144.743ZM165.288 10.88C163.888 9.4 161.888 8.52 159.128 8.52C153.568 8.52 149.528 12.92 149.528 18.48C149.528 24 153.568 28.4 159.128 28.4C162.048 28.4 164.128 27.4 165.528 25.8V28H170.048V0.399998H165.288V10.88ZM159.848 24.12C156.688 24.12 154.368 21.72 154.368 18.48C154.368 15.2 156.688 12.8 159.848 12.8C163.328 12.8 165.328 15.2 165.328 18.48C165.328 21.72 163.328 24.12 159.848 24.12Z" fill="#020202"/>
</svg>
